<?xml version="1.0" encoding="utf-8"?>
<!-- Generator: Adobe Illustrator 21.1.0, SVG Export Plug-In . SVG Version: 6.00 Build 0)  -->
<svg version="1.1" id="Layer_1" xmlns="http://www.w3.org/2000/svg" xmlns:xlink="http://www.w3.org/1999/xlink" x="0px" y="0px"
	 viewBox="0 0 407.6 360" style="enable-background:new 0 0 407.6 360;" xml:space="preserve">
<style type="text/css">
	.st0{fill:#4F245E;}
</style>
<g>
	<path class="st0" d="M263,108.4c-0.3,2.9-0.8,6.1-2.3,8.7c0,0,0-0.1,0-0.1c-0.8,1.3-1.6,2.4-2.9,3.2c-1.8,1.1-4.2,1.3-6.3,0.7
		c-3.1-1-4.9-4.1-5.7-7c-1.2-4-1.3-8.3-1-12.4c0.3-3.8,1.2-7.7,3.5-10.7c0,0,0,0,0,0c0.4-0.6,0.9-1.1,1.5-1.5c-0.1,0.1,0.1-0.1,0,0
		c1.6-1.3,3.7-1.6,5.6-1.2c2.3,0.5,4.1,2.4,5.2,4.4c0-0.1,0,0,0,0c1,2,1.8,4.4,2.1,6.7C263.2,102.2,263.2,105.3,263,108.4 M270.1,98
		c-1.2-4.5-4.1-8.6-8.1-11c-2-1.2-4.3-2.1-6.6-2.3c-2.3-0.2-4.6,0.1-6.8,0.9c-2.8,1-5.3,2.9-7.2,5.2c-2.6,3.2-4.2,7.2-4.6,11.3
		c-0.5,4.8,0.3,9.9,2.8,14.1c2.4,4,6.1,7,10.7,8.1c4.7,1.1,9.8-0.1,13.6-3.1c3.8-3.1,6-7.6,6.8-12.4
		C271.3,105.1,271.1,101.4,270.1,98"/>
	<path class="st0" d="M144.6,85.6l14.7,0v3.1c-1.5,0-2.3,0.5-2.7,0.8c-0.1,0.2-0.5,0.5-0.6,1.4c0,0.4,0.3,1.4,0.3,1.6
		c0.1,0.2,0.4,1.4,0.4,1.4l5.9,17.3l5.9-16.8c0,0,1.1-3,0.9-4c-0.1-0.9-0.5-1.2-0.7-1.4c-0.4-0.3-0.8-0.4-0.9-0.4
		c-0.5-0.1-2.4,0-2.4,0v-3.1h11v3.1c0,0-1.2,0-1.8,0.4c-0.5,0.3-0.9,0.9-1.1,1.8c-0.1,0.4-9,26.4-9.2,27c-0.8,2.3-1.6,4.9-3.1,8.2
		c-2.2,5-4.3,8.3-6.8,10.8c-1.2,0.9-3,3-6.3,3c-0.7,0-1.4-0.4-2-0.8c-1-0.7-1.3-1.6-1.4-2.3c-0.1-1.3,0.2-2.4,0.9-3.1
		c0.9-1,3.6-1.1,3.6-1.1s2.7-0.1,3.5-0.4c0.6-0.2,0.9-0.4,1.6-1.1c0.6-0.7,1-1.4,1-1.4s0.7-1,1.5-3.5c1.1-3.4,1-5.8,0.8-7.1
		c0-0.2-8.4-24.3-8.5-24.8c-0.6-2-1.2-3.2-1.4-3.6c-0.6-1.2-1.3-1.7-1.3-1.7s-0.5-0.4-1.2-0.5c-0.2,0-0.8,0-0.8,0V85.6L144.6,85.6z"
		/>
	<path class="st0" d="M132.2,115.5c0,0-2.5,4.2-6.5,4.3c-2.2,0.1-3.1-1.7-3.2-1.8c-1.6-3.2-0.2-6.9,0.6-8.3c0.4-0.8,1.2-1.7,2.8-2.8
		c1.5-1,3.6-2.1,6.3-3.5V115.5L132.2,115.5z M144.2,118c-0.4,0.7-0.9,1.2-1.3,1.4c-0.6,0.3-1.3,0.2-1.8,0c-1.3-0.8-1.1-3.7-1.1-3.7
		V94.4c0-1.8-0.4-5.1-2.9-7.1c-2.8-2.4-6.8-2.6-9.5-2.7c-3.8-0.1-7.2,1.3-7.4,1.3c-1.1,0.5-3.4,1.7-4.8,3.9c-0.8,1.5-1.1,2.4-0.8,4
		c0.1,0.7,0.6,2,2.1,2.6c1.3,0.4,2.5-0.1,3.3-1.1c1.4-2.2,0.7-2.9,1.4-4.7c1.3-2.7,5.6-2.2,5.6-2.2s2.8-0.2,4.2,1.4
		c0.7,0.7,0.9,2.7,0.9,2.7v6.9c-8.3,3.6-12.5,6.5-15,9.2c-0.9,1-3.5,4.1-3.2,9.3c0.5,5.3,4.2,6.4,5.5,6.6c1.8,0.4,5.8,0,8.7-1
		c2.1-0.8,3.6-2.2,5.2-3.6c0.9,3.2,2.2,4.7,6,4.9c4,0,6.2-4.9,6.4-5.7C145.5,118.8,144.6,118.3,144.2,118"/>
	<path class="st0" d="M92.9,89.4c-3.2,6.7-10.6,5.9-12,5.8V71.6c0,0,6-0.5,10,2.4C97.2,79.2,93.3,89.1,92.9,89.4 M119.9,128.8
		c0,0-3,1.2-6.5-0.2c-2.1-0.8-4.3-4.5-4.9-5.9c-0.6-1.4-1.2-2.8-2-7.8c-0.6-5.7-2.9-9.9-2.9-9.9s-1.3-2.8-4-5.2
		c-1.4-1.3-3.4-2.4-5-3.2c5.4-2.8,7.5-5.9,8.4-9.3c0.5-1.8,0.6-3.9,0.6-5.7c0-3.6-1.3-8.1-4.3-10.6c-1.1-0.9-4.9-4.1-12.8-4.1
		c-1.1-0.1-9.6,0.4-12.7,0.4c-2,0-7-0.2-7-0.2v3.6c2.7,0,3.1,0,4.3,0.2c0.3,0.1,0.7,0.2,0.7,0.2s0.5,0.2,0.7,0.6
		c0.4,0.5,0.5,1.3,0.5,1.6c0,0,0,0.1,0,0.5v38.2c0,2.5,0.1,4.4-0.8,5.8c-0.9,1.8-4.2,1.4-5.5,1.5v4.1h20.8v-4.1
		c-2.6-0.1-4.2,0-5.6-1.5c-0.6-0.8-0.9-2.2-0.9-2.2s-0.2-1.9-0.2-3.6V98.9h5.1c0,0,1.2,0,2.1,0c0.8,0.1,1.4,0,3.1,0.8
		c1.1,0.5,1.9,1.3,2.4,1.9c1.7,2.3,2.1,4.1,2.4,5.4c0.5,2,1,5.1,1,5.1s0.7,4.7,0.9,5.4c0.3,1.3,1,3.4,2,5.3c0.8,1.4,2,4,5.9,7
		c3.2,2.3,8,4.1,16,2.2C121.6,131.5,119.9,128.8,119.9,128.8"/>
	<path class="st0" d="M195.1,120.8v3h-13.3v-3c1,0,1.7-0.7,2.2-1.3c0.9-1.7,0.7-3.9,0.7-3.9V98c0-2,0-3.4-0.1-3.6
		c-0.3-2.7-0.9-3.1-1.1-3.5c-0.2-0.5-0.9-0.8-1.2-0.9c-0.3-0.1-1.2-0.1-1.2-0.1v-2.9c0,0,4,0.2,9.5-2.5c0,0.5,0.5,4.1,0.5,4.5
		c0.9-1,2.1-2.3,3.5-3.1c1.5-0.8,3-1.3,4.9-1.4c6.3-0.1,9.8,5.9,10,6c2.3-2.8,5.8-5.8,11-6.2c6.9-0.1,9.4,4.6,10.1,6.4
		c1.2,3.4,1.1,7.2,1.1,7.2v17.7c0,0-0.1,2.3,0.6,3.5c0.5,0.8,1,1.4,2.2,1.6v3h-13.4h0.1v-2.9c2-0.3,2.3-1.6,2.6-2.8
		c0.3-1.1,0.2-2.4,0.2-2.4v-14.2c0,0,0.6-11.5-5.9-12c-6,0.2-6.3,9.8-6.2,12v14.2c0,0.5,0.1,2,0.2,2.3c0.3,1.2,1,2.6,2.6,2.7v3
		h-13.3v-3c0.7,0,2.1-0.3,2.7-2.8c0.1-0.1,0.2-1.1,0.2-2.2v-14.2c0.3-9.7-3.8-11.7-5.8-12c-4.2,0.1-6.3,5-6.2,11.9v14.2
		c0,0-0.1,2.2,0.7,3.5C193.7,120.6,195.1,120.8,195.1,120.8"/>
	<path class="st0" d="M284.7,85.5h-11.6v3.1c0,0,2.1,0.1,2.9,0.7c0.6,0.5,0.7,1.6,0.7,1.6s0.3,2.2,0.2,3.5v17.8
		c-0.1,5.6,1.2,12.7,10.7,12.6c4.7,0.1,6.9-1.1,11-5.9c0.2,0.5,1.2,5.8,1.2,5.8l10.3-3.3v-2.6c-2.2,0.2-3,0.1-3.7-0.6
		c-0.7-0.8-0.8-2.5-0.8-2.5l-0.1-3.5V85.5h-11.2v3.1c1.2,0.1,1.8,0.2,2.5,0.7c0.6,0.5,0.8,1.7,0.8,1.7s0.2,1.5,0.1,3.5v14.2
		c0,2-0.1,4.4-1.5,7.1c-1.5,3.4-5.1,4.4-5.1,4.4s-5.3,1.9-6.4-4.5c-0.1-0.6-0.2-3.6-0.2-3.6V85.5L284.7,85.5z"/>
	<path class="st0" d="M314.6,87.1V90c1.5-0.2,2.4,0.2,2.5,0.3c1.7,1.1,1.8,4.1,1.8,4.1s0.1,3.1,0.1,3.5v17.8c0,0,0,3-0.8,3.8
		c-0.1,0.2-0.8,1.3-2.9,1.2v2.8h15.4v-2.8c-2.5,0.1-3.2-1.2-3.4-1.5c-0.2-0.3-0.7-1.7-0.7-3.5V99.5c0,0-0.2-9.1,4.9-9.7
		c1-0.2,1.8-0.1,2.6,0.6c0.5,0.5,0.6,0.9,0.8,1.9c0.3,0.8,1.6,1.7,3.5,1.3c0.8-0.2,2.9-1.3,2.3-4.7c-0.1-1.1-1.8-4.9-7.2-4.6
		c-5.1,0.7-5.9,2.3-7.8,4.7c-0.1-0.2-0.9-4.9-0.9-4.9S318.9,86.8,314.6,87.1"/>
	<path class="st0" d="M363.7,168.1h1.2c1.3,0,1.8-0.2,1.8-1.1c0-0.7-0.4-1-1.6-1h-1.4V168.1L363.7,168.1z M363.7,172.1h-1.1V165h2.7
		c1.6,0,2.5,0.7,2.5,2c0,1.3-0.8,1.8-1.7,1.9l1.9,3.1h-1.3l-1.9-3.1h-1.1V172.1L363.7,172.1z M369.9,168.5c0-2.9-2.1-5.1-4.9-5.1
		c-2.8,0-5,2.2-5,5.1c0,2.9,2.1,5.1,5,5.1C367.7,173.7,369.9,171.5,369.9,168.5 M358.8,168.5c0-3.4,2.8-6.1,6.1-6.1
		c3.3,0,6.1,2.6,6.1,6.1c0,3.5-2.8,6.1-6.1,6.1C361.6,174.6,358.8,172,358.8,168.5"/>
	<path class="st0" d="M73.2,192.2c-2.5,3.4-3.8,5.5-8.6,5.3c-2.9-0.1-8.6-1.4-8.6-10.3c0-7.3,2.9-11,5.9-14.3
		C62.5,174.3,68.7,185.7,73.2,192.2 M66,162.9c0,0-1-2.1-2.2-4.7c-0.8-1.9-1.5-4-2.1-6.4c-1.3-6.3,1-11.4,4.3-11.5
		c4.3-0.3,5.4,5.4,5.1,11.5c-0.1,2.4-0.9,4.8-1.9,6.7C67.5,161.3,66,162.9,66,162.9 M93,161.2c-5.1,0.2-6.9,3-7.6,3.8
		c-3.8,5.8-6.3,13-8.1,17.5c-0.1-0.2-7.7-13.2-8.7-15.3c10.2-8.8,10.1-16.1,10-20c-0.1-2.2-1.1-5.1-3.4-7.5c-2.3-2.6-5.8-3.9-9-3.9
		c-6.7,0.4-9.9,7-9.9,7s-3.2,5.9-2.2,13.3c0.5,4.5,4,10.2,5.2,12.7c-5.8,4.1-9.4,8.3-11.4,13.8c-0.8,2.1-2.2,8.4,0.4,13.3
		c2.3,4,7,7.7,13.3,7.9c5.6,0.2,9-2.4,10.4-3.5c1.4-1,3.1-3.4,3.9-4.7c8.2,12.1,15,8.2,18.7,5c-0.8-0.7-2-1.6-2.7-2.4
		c-4,2.6-4,2.6-11.7-10.6c0.1-0.3,4.9-13.1,5.2-13.8c0.3-0.7,1.7-3.6,2.6-4.5c1.2-1,2.3-1.5,2.3-1.5s-0.2,2.2-0.1,2.7
		c0.1,0.5,0.1,4,4.3,4.5c4,0.1,5.3-4.3,5.3-5.7C100.2,167,97.8,161,93,161.2"/>
	<path class="st0" d="M310.2,194.6c0,0-2.5,4.2-6.5,4.3c-2.2,0.1-3.1-1.7-3.2-1.8c-1.6-3.2-0.2-6.9,0.6-8.3c0.4-0.8,1.2-1.7,2.8-2.8
		c1.5-1,3.6-2.1,6.3-3.5V194.6L310.2,194.6z M322.3,197.2c-0.4,0.7-0.9,1.2-1.3,1.4c-0.6,0.3-1.3,0.2-1.8,0
		c-1.3-0.8-1.1-3.7-1.1-3.7v-21.2c0-1.8-0.4-5.1-2.9-7.1c-2.8-2.4-6.8-2.6-9.5-2.7c-3.8-0.1-7.2,1.3-7.4,1.3
		c-1.1,0.5-3.4,1.7-4.8,3.9c-0.8,1.5-1.1,2.4-0.8,4c0.1,0.7,0.6,2,2.1,2.6c1.3,0.4,2.5-0.1,3.3-1.1c1.4-2.2,0.7-2.9,1.4-4.7
		c1.3-2.7,5.6-2.2,5.6-2.2s2.8-0.2,4.2,1.4c0.7,0.7,0.9,2.7,0.9,2.7v6.9c-8.3,3.6-12.5,6.5-15,9.2c-0.9,1-3.5,4.1-3.3,9.3
		c0.5,5.3,4.2,6.4,5.5,6.6c1.8,0.4,5.8,0,8.7-1c2.1-0.8,3.6-2.2,5.2-3.6c0.9,3.2,2.2,4.7,6,4.9c4,0,6.2-4.9,6.4-5.7
		C323.5,198,322.7,197.4,322.3,197.2"/>
	<path class="st0" d="M183.6,194.6c0,0-2.5,4.2-6.5,4.3c-2.2,0.1-3.1-1.7-3.2-1.8c-1.6-3.2-0.2-6.9,0.6-8.3c0.4-0.8,1.2-1.7,2.8-2.8
		c1.5-1,3.6-2.1,6.3-3.5V194.6L183.6,194.6z M195.7,197.2c-0.4,0.7-0.9,1.2-1.3,1.4c-0.6,0.3-1.3,0.2-1.8,0
		c-1.3-0.8-1.1-3.7-1.1-3.7v-21.2c0-1.8-0.4-5.1-2.9-7.1c-2.8-2.4-6.8-2.6-9.5-2.7c-3.8-0.1-7.2,1.3-7.4,1.3
		c-1.1,0.5-3.4,1.7-4.8,3.9c-0.8,1.5-1.1,2.4-0.8,4c0.1,0.7,0.6,2,2.1,2.6c1.3,0.4,2.5-0.1,3.3-1.1c1.4-2.2,0.7-2.9,1.4-4.7
		c1.3-2.7,5.6-2.2,5.6-2.2s2.8-0.2,4.2,1.4c0.7,0.7,0.9,2.7,0.9,2.7v6.9c-8.3,3.6-12.5,6.5-15,9.2c-0.9,1-3.5,4.1-3.3,9.3
		c0.5,5.3,4.2,6.4,5.5,6.6c1.8,0.4,5.8,0,8.7-1c2.1-0.8,3.6-2.2,5.2-3.6c0.9,3.2,2.2,4.7,6,4.9c4,0,6.2-4.9,6.4-5.7
		C196.9,198,196.1,197.4,195.7,197.2"/>
	<path class="st0" d="M104.9,149.9v-3.6h35.2l1,13.1h-2.9c0,0-0.2-4.3-2-6.2c-1.8-1.8-5.2-2.1-7.6-2.2c-1.8-0.2-10.1-0.2-10.1-0.2
		v20.9c0,0,4.9,0.1,6.6-0.4c4.4-0.9,3.9-5.4,4.3-6.6h2.6v18.7h-2.7c-0.5-2.3-1-5.6-4.3-6.4c-1.1-0.7-6.5-0.6-6.5-0.6v14.8
		c-0.1,3.3,0.2,6,1.2,7.1c1.3,1.6,4.1,1.4,4.6,1.4v3h-19.3v-3c0.8,0,3.2,0.1,4.3-1.5c1.6-1.6,1.4-5.3,1.4-7.1v-31.9
		c0-3.2,0.1-5.6-0.5-7.1c-0.7-1.4-1.3-1.9-2.9-2.3C106.7,150,105.3,149.9,104.9,149.9"/>
	<path class="st0" d="M145,149.8v-2.9l12-2.5v50.4c0,1,0.1,2.1,0.6,3.5c0.3,0.6,0.8,1.1,1.6,1.3c0.7,0.1,1.8,0.2,1.8,0.2v2.9h-15.6
		v-2.9c0,0,0.7,0,1.4-0.1c0.6-0.1,1.5-0.4,1.9-1.4c0.6-1,0.6-3.5,0.6-3.5v-35.4c0-4-0.1-5.4-0.6-7c-0.3-1-0.8-1.6-1.5-2.1
		C146.2,149.7,145,149.8,145,149.8"/>
	<path class="st0" d="M199.3,169.1v-2.9c5.1-0.1,9.6-2.4,9.6-2.4s0.5,4.3,0.5,4.5c1.8-2,3.9-4.5,9.1-4.6
		c10.4,0.4,11.4,9.9,11.7,13.4c0,0.5,0.1,13.9,0.1,14.3c-0.1,4,0.1,6.1,0.7,7c0.6,1.1,1.6,1.5,2.2,1.5v3h-13.4v-2.9
		c0.9-0.1,1.8-0.5,2.3-1.5c0.8-1.5,0.7-3.1,0.6-7.1c-0.1-6.1,0-13.1-0.2-14.2c-0.2-2.6-1.7-8.3-5.8-8.4c-4.2,0.2-5.6,5.7-5.9,8.4
		c-0.1,0.5-0.1,16.9-0.1,17.7c0,1.8,0.3,3,0.7,3.5c0.5,0.9,1.1,1.4,2.2,1.5v3h-13.3c0,0,0-2.5,0-3c1.4-0.2,1.8-0.7,2.2-1.6
		c0.4-0.9,0.5-1.6,0.6-3.5v-17.7c0-3.8-0.1-5.7-1.2-7.1C200.9,169.1,200.2,169.1,199.3,169.1"/>
	<path class="st0" d="M325.7,169.1v-2.9c5.1-0.1,9.6-2.4,9.6-2.4s0.5,4.3,0.5,4.5c1.8-2,3.9-4.5,9.1-4.6
		c10.4,0.4,11.4,9.9,11.7,13.4c0,0.5,0.1,13.9,0.1,14.3c-0.1,4,0.1,6.1,0.7,7c0.6,1.1,1.6,1.5,2.2,1.5v3h-13.4v-2.9
		c0.9-0.1,1.8-0.5,2.3-1.5c0.8-1.5,0.7-3.1,0.6-7.1c-0.1-6.1,0-13.1-0.2-14.2c-0.2-2.6-1.7-8.3-5.8-8.4c-4.2,0.2-5.6,5.7-5.9,8.4
		c-0.1,0.5-0.1,16.9-0.1,17.7c0,1.8,0.3,3,0.7,3.5c0.5,0.9,1.1,1.4,2.2,1.5v3h-13.3c0,0,0-2.5,0-3c1.4-0.2,1.8-0.7,2.2-1.6
		c0.4-0.9,0.5-1.6,0.6-3.5v-17.7c0-3.8-0.1-5.7-1.2-7.1C327.3,169.1,326.6,169.1,325.7,169.1"/>
	<path class="st0" d="M240.4,152.5c-0.1-2.9,2.1-5.6,4.7-5.6c2.8,0,4.8,2.8,4.7,5.5c0,3.9-2.7,5.7-4.7,5.7
		C242.9,158.1,240.4,156,240.4,152.5"/>
	<path class="st0" d="M237.8,169.1v-2.5l11.1-3.4v31.6c0,5.1,2.9,5.1,2.9,5.1v2.9h-13.5v-2.9c0,0,2.9,0.3,2.8-5.1v-21.3
		c0.1-2.7-0.4-3.4-1-4C240,169.4,239.8,169,237.8,169.1"/>
	<path class="st0" d="M275.1,178.5c-0.1,5.4-1.6,10.7-6.2,10.6c-3.9,0-5.7-5.4-5.7-10.8c-0.1-6,1.9-11.2,5.7-11.1
		C273.3,167.2,275.4,172.4,275.1,178.5 M284.9,163.8c-2.8,0.1-5.3,2.3-6.9,3.3c-2.4-2.2-5.6-3.5-9.4-3.3
		c-11.8,0.6-12.8,10.6-13.1,14.1c0,7.8,3.8,10.8,6.9,12.2c-2.1,0.7-6.2,1.6-5.9,7.3c0.2,6.2,7.1,6.5,13.1,7
		c6.9,0.2,11.5,1.2,10.7,5.8c-0.6,3.7-6,6.3-10.9,5.8c-3.1-0.2-6.3-1.6-7.5-3.5c-0.7-1-1.2-2.8-0.4-3.9c1-1.1,2-0.7,2.2-1.3
		c0.2-1.2-6.2-3.2-7.9,1.7c-1.2,4.4,2.9,7.5,4.4,8.2c1.6,0.9,9.1,4,17.8,1c3.6-1.2,9.1-4.4,8.7-10.9c-0.2-13.6-18.9-10.1-22.9-11.2
		c-0.2-0.1-1.1-0.6-1.1-1.6c0.1-0.3,0.1-1.1,1.1-1.6c0.4-0.1,2.9-0.4,3.6-0.3c3.9,0,9.4,0.2,13-4.9c1.8-2.6,2.5-6.6,2.1-10.7
		c-0.2-3.8-1.2-6-2.3-7.4c0.2-0.1,1.4-0.8,2.4-0.5c1.5,0.2,1.7,1.6,2.5,2.4c0.2,0.2,0.9,0.6,1.7,0.5
		C291,171.7,290.9,163.9,284.9,163.8"/>
	<path class="st0" d="M312.2,300c4.2,0,7.2-2.2,7.2-6v-0.1c0-3.3-2.2-4.8-6.4-5.9c-3.8-0.9-4.8-1.6-4.8-3.2v-0.1
		c0-1.3,1.2-2.4,3.3-2.4c1.8,0,3.6,0.7,5.4,2.1l1.9-2.7c-2-1.6-4.4-2.5-7.3-2.5c-4,0-6.8,2.4-6.8,5.8v0.1c0,3.7,2.4,5,6.7,6
		c3.7,0.9,4.5,1.6,4.5,3.1v0.1c0,1.5-1.4,2.5-3.6,2.5c-2.5,0-4.4-0.9-6.3-2.6l-2.1,2.5C306.3,298.9,309.1,300,312.2,300
		 M281.6,299.7h15v-3.2h-11.5v-5.4h10.1V288h-10.1v-5.2h11.3v-3.2h-14.9V299.7L281.6,299.7z M266.1,300c4.2,0,7.2-2.2,7.2-6v-0.1
		c0-3.3-2.2-4.8-6.4-5.9c-3.8-0.9-4.8-1.6-4.8-3.2v-0.1c0-1.3,1.2-2.4,3.3-2.4c1.8,0,3.6,0.7,5.4,2.1l1.9-2.7
		c-2-1.6-4.4-2.5-7.3-2.5c-4,0-6.8,2.4-6.8,5.8v0.1c0,3.7,2.4,5,6.7,6c3.7,0.9,4.5,1.6,4.5,3.1v0.1c0,1.5-1.4,2.5-3.6,2.5
		c-2.5,0-4.4-0.9-6.3-2.6l-2.1,2.5C260.1,298.9,263,300,266.1,300 M243.6,300c4.2,0,7.2-2.2,7.2-6v-0.1c0-3.3-2.2-4.8-6.4-5.9
		c-3.8-0.9-4.8-1.6-4.8-3.2v-0.1c0-1.3,1.2-2.4,3.3-2.4c1.8,0,3.6,0.7,5.4,2.1l1.9-2.7c-2-1.6-4.4-2.5-7.3-2.5c-4,0-6.8,2.4-6.8,5.8
		v0.1c0,3.7,2.4,5,6.7,6c3.7,0.9,4.5,1.6,4.5,3.1v0.1c0,1.5-1.4,2.5-3.6,2.5c-2.5,0-4.4-0.9-6.3-2.6l-2.1,2.5
		C237.6,298.9,240.5,300,243.6,300 M213,299.7h15v-3.2h-11.5v-5.4h10.1V288h-10.1v-5.2h11.3v-3.2H213V299.7L213,299.7z M191.5,289.6
		v-6.7h5.1c2.6,0,4.2,1.2,4.2,3.3v0.1c0,2-1.6,3.4-4.1,3.4H191.5L191.5,289.6z M188,299.7h3.5v-7h4.4l4.9,7h4.2l-5.4-7.6
		c2.8-0.8,4.8-2.8,4.8-6.1v-0.1c0-1.7-0.6-3.2-1.7-4.3c-1.3-1.3-3.3-2-5.8-2H188V299.7L188,299.7z M170.4,299.7h3.6v-16.8h6.4v-3.3
		h-16.3v3.3h6.4V299.7L170.4,299.7z M147.2,299.7h3.6v-16.8h6.4v-3.3h-16.3v3.3h6.4V299.7L147.2,299.7z M123.3,291.7l3.4-8l3.5,8
		H123.3L123.3,291.7z M116.4,299.7h3.6l2.1-4.8h9.5l2,4.8h3.7l-8.8-20.2h-3.3L116.4,299.7L116.4,299.7z M89.2,299.7h3.5v-14.3
		l6.3,9.4H99l6.3-9.5v14.4h3.5v-20.1h-3.8l-6.1,9.5l-6.1-9.5h-3.8V299.7L89.2,299.7z"/>
	<path class="st0" d="M290.5,248.9h15v-3.2h-11.5v-5.4h10.1v-3.1h-10.1V232h11.3v-3.2h-14.9V248.9L290.5,248.9z M269,238.8v-6.7h5.1
		c2.6,0,4.2,1.2,4.2,3.3v0.1c0,2-1.6,3.4-4.1,3.4H269L269,238.8z M265.5,248.9h3.5v-7h4.4l4.9,7h4.2l-5.4-7.6
		c2.8-0.8,4.8-2.8,4.8-6.1v-0.1c0-1.7-0.6-3.2-1.7-4.3c-1.3-1.3-3.3-2-5.8-2h-8.9V248.9L265.5,248.9z M247.6,249.2
		c5.2,0,8.6-3,8.6-9v-11.4h-3.5v11.5c0,3.7-1.9,5.6-5,5.6c-3.2,0-5.1-2-5.1-5.7v-11.4H239v11.5C239,246.2,242.4,249.2,247.6,249.2
		 M221.6,248.9h3.6v-16.8h6.4v-3.3h-16.3v3.3h6.4V248.9L221.6,248.9z M204.1,248.9h3.5v-20.1h-3.5V248.9L204.1,248.9z M176.9,248.9
		h3.5v-14.3l11.1,14.3h2.9v-20.1H191v13.9l-10.7-13.9h-3.3V248.9L176.9,248.9z M155.4,238.8v-6.7h5.1c2.6,0,4.2,1.2,4.2,3.3v0.1
		c0,2-1.6,3.4-4.1,3.4H155.4L155.4,238.8z M151.9,248.9h3.5v-7h4.4l4.9,7h4.2l-5.4-7.6c2.8-0.8,4.8-2.8,4.8-6.1v-0.1
		c0-1.7-0.6-3.2-1.7-4.3c-1.3-1.3-3.3-2-5.8-2h-8.9V248.9L151.9,248.9z M134,249.2c5.2,0,8.6-3,8.6-9v-11.4h-3.5v11.5
		c0,3.7-1.9,5.6-5,5.6c-3.2,0-5.1-2-5.1-5.7v-11.4h-3.5v11.5C125.4,246.2,128.8,249.2,134,249.2 M103,248.9h3.5v-8.2h10.1v-3.2
		h-10.1v-5.5h11.4v-3.2H103V248.9L103,248.9z"/>
	<polygon class="st0" points="123.2,262.6 123.2,264.2 284.3,264.2 284.3,262.6 123.2,262.6 	"/>
</g>
</svg>
